<?xml version="1.0"?>
<svg xmlns="http://www.w3.org/2000/svg" height="512px" viewBox="0 0 512 512" width="512px"><path d="m256 512c-141.160156 0-256-114.839844-256-256s114.839844-256 256-256 256 114.839844 256 256-114.839844 256-256 256zm0-494.933594c-131.746094 0-238.933594 107.1875-238.933594 238.933594s107.1875 238.933594 238.933594 238.933594 238.933594-107.1875 238.933594-238.933594-107.1875-238.933594-238.933594-238.933594zm0 0" fill="#FFFFFF"/><path d="m256 443.734375c-3.558594 0-6.742188-2.210937-7.996094-5.539063l-76.800781-204.800781c-.980469-2.617187-.613281-5.554687.984375-7.859375 1.59375-2.304687 4.214844-3.667968 7.011719-3.667968h153.601562c2.796875 0 5.417969 1.375 7.011719 3.667968 1.597656 2.304688 1.957031 5.242188.984375 7.859375l-76.800781 204.800781c-1.253906 3.328126-4.4375 5.539063-7.996094 5.539063zm-64.488281-204.800781 64.488281 171.964844 64.488281-171.964844zm0 0" fill="#FFFFFF"/><path d="m256 443.734375c-3.558594 0-6.742188-2.210937-7.996094-5.539063l-35.199218-93.867187c-.980469-2.621094-.613282-5.554687.980468-7.859375 1.597656-2.304688 4.214844-3.667969 7.015625-3.667969h70.398438c2.800781 0 5.417969 1.375 7.015625 3.667969 1.59375 2.304688 1.953125 5.238281.980468 7.859375l-35.199218 93.867187c-1.253906 3.328126-4.4375 5.539063-7.996094 5.539063zm-22.886719-93.867187 22.886719 61.03125 22.886719-61.03125zm0 0" fill="#FFFFFF"/><path d="m332.800781 238.933594h-153.601562c-4.710938 0-8.53125-3.824219-8.53125-8.535156v-209.652344c0-3.695313 2.371093-6.964844 5.886719-8.117188 51.378906-16.765625 107.519531-16.765625 158.890624 0 3.515626 1.144532 5.886719 4.421875 5.886719 8.117188v209.652344c0 4.710937-3.820312 8.535156-8.53125 8.535156zm-145.066406-17.066406h136.53125v-194.84375c-44.320313-13.214844-92.210937-13.214844-136.53125 0zm0 0" fill="#FFFFFF"/></svg>
